<svg xmlns="http://www.w3.org/2000/svg" width="106.552" height="64" viewBox="0 0 106.552 64">
  <path id="aws_icon" d="M30.036,27.664c-.12,3.771,1.765,5.441,1.811,6.5a1.359,1.359,0,0,1-.683,1.044L29.034,36.7a1.775,1.775,0,0,1-.937.32c-.072,0-1.364.3-3.41-4.264a13.087,13.087,0,0,1-10.424,4.9c-2.71.148-10.056-1.538-9.678-9.358-.265-6.373,5.67-10.332,11.809-10a33.436,33.436,0,0,1,7.823,1.044v-2.6c.448-4.405-2.447-7.823-7.46-7.31a19.859,19.859,0,0,0-7.632,1.683c-1.225.563-1.382.469-1.79.469-1.234,0-.726-3.576-.489-4.029.867-1.066,5.97-3.055,10.978-3.027A12.8,12.8,0,0,1,27.1,7.411a11.7,11.7,0,0,1,2.942,8.717l0,11.536ZM15.648,33.057c5.4-.078,7.685-3.325,8.206-5.073a16.676,16.676,0,0,0,.341-4.562,28.616,28.616,0,0,0-6.586-.811c-2.522-.19-7.129.937-6.949,5.371A4.625,4.625,0,0,0,15.648,33.057ZM44.1,36.894a1.922,1.922,0,0,1-2.111-1.726L33.7,7.756a6.359,6.359,0,0,1-.32-1.428.767.767,0,0,1,.643-.874c.04-.007-.355,0,3.7,0A1.891,1.891,0,0,1,39.818,7.18l5.947,23.446L51.286,7.18a1.884,1.884,0,0,1,2.131-1.7h2.857A1.842,1.842,0,0,1,58.385,7.2l5.564,23.746L70.087,7.2A1.948,1.948,0,0,1,72.2,5.475h3.283c.142-.022,1.024-.135.874,1.428-.072.308.568-1.775-8.782,28.286a1.921,1.921,0,0,1-2.111,1.726H62.35a1.921,1.921,0,0,1-2.111-1.79L54.719,12.3,49.261,35.1a1.919,1.919,0,0,1-2.111,1.79H44.1Zm45.53.937a22.492,22.492,0,0,1-9.55-2.046,2.131,2.131,0,0,1-1.3-1.983v-1.79c0-1.407,1.032-1.149,1.47-.981a22.859,22.859,0,0,0,4.8,1.6c6.1,1.254,8.785-.383,9.443-.746a3.828,3.828,0,0,0,.874-5.819c-1.745-1.463-2.577-1.518-8.845-3.5-.772-.215-7.275-2.266-7.29-8.717-.1-4.7,4.17-9.353,11.574-9.315,2.109,0,7.73.688,9.252,2.6a2.012,2.012,0,0,1,.32,1.172V9.993q0,1.109-.811,1.109c-1.284-.143-3.561-1.86-8.184-1.79-1.147-.06-6.641.152-6.395,4.157-.072,3.157,4.43,4.34,4.945,4.477,6.07,1.826,8.1,2.129,10.509,4.925,2.854,3.7,1.315,8.041.724,9.23-3.177,6.242-11.391,5.734-11.531,5.73Zm6.693,17.458C84.668,63.9,67.743,68.483,53.292,68.483A78.1,78.1,0,0,1,.471,48.383C-.616,47.4.343,46.059,1.665,46.807a106.113,106.113,0,0,0,52.756,14,104.923,104.923,0,0,0,40.221-8.249c1.961-.832,3.624,1.3,1.685,2.727Zm4.86-5.542c-1.492-1.918-9.869-.9-13.62-.448-1.13.128-1.322-.852-.3-1.577,6.671-4.69,17.627-3.346,18.886-1.77s-.341,12.555-6.586,17.8c-.959.811-1.876.383-1.45-.683,1.405-3.538,4.56-11.4,3.068-13.322Z" transform="translate(0 -4.485)" fill="#b4b4b4"/>
</svg>
