<svg id="Layer_2" data-name="Layer 2" xmlns="http://www.w3.org/2000/svg" width="45.699" height="40" viewBox="0 0 45.699 40">
  <g id="Layer_1" data-name="Layer 1">
    <path id="Path_75" data-name="Path 75" d="M22.839,39.994H6.446C2.213,39.976,0,37.756,0,33.53V6.395C0,2.364,2.279.033,6.3.022q16.533-.044,33.065,0c4,0,6.328,2.393,6.332,6.373V33.53c0,4.2-2.246,6.443-6.465,6.461C33.769,40.009,28.3,39.994,22.839,39.994Zm0-28.647c-6.2,0-12.395.026-18.594-.026-1.173,0-1.6.277-1.589,1.527.055,7.007,0,14.047.026,21.069,0,2.334,1.025,3.363,3.345,3.363H39.633c2.316,0,3.367-1.044,3.371-3.356,0-7.007-.022-14.047.03-21.069,0-1.25-.431-1.545-1.6-1.534-6.2.048-12.395.026-18.594.026ZM14.29,8.46c.2.085.28.151.369.151q13.708.033,27.415.03a1.106,1.106,0,0,0,.856-.465,3.751,3.751,0,0,0-3.562-5.414H15.67c-.443,0-.885.044-1.372.07Zm-7.236.21h0c1.143,0,2.294.066,3.43-.041a1.258,1.258,0,0,0,.874-.837c.1-1.368,0-2.747.052-4.119,0-.738-.369-.926-1.018-.915-1.645.026-3.3-.048-4.942.026C3.319,2.873,2.545,4.23,2.688,7.516c.092,2.1,1.7.837,2.581,1.106A5.762,5.762,0,0,0,7.055,8.67Z" fill="#b4b4b4"/>
  </g>
</svg>
