<svg xmlns="http://www.w3.org/2000/svg" width="50.07" height="40" viewBox="0 0 50.07 40">
  <g id="Layer_2" data-name="Layer 2" transform="translate(-0.034 0.015)">
    <g id="Layer_1" data-name="Layer 1" transform="translate(0.034 -0.015)">
      <path id="Path_69" data-name="Path 69" d="M54.519,72.144c0-2.019-.023-4.041,0-6.061a3.711,3.711,0,0,1,3.96-3.944c2.272-.032,4.525-.019,6.788,0,2.681,0,4.188,1.38,4.243,4.067q.122,5.936,0,11.878c-.052,2.694-1.526,4.028-4.236,4.038-2.272,0-4.528.019-6.791,0a3.66,3.66,0,0,1-3.973-3.9v-.243Zm2.383-.088v6.051c0,1.11.471,1.646,1.587,1.623,2.344,0,4.684-.019,7.025,0,1.126,0,1.623-.516,1.623-1.623V66.125c0-1.068-.422-1.646-1.591-1.623-2.34.042-4.681,0-7.021,0-1.279,0-1.6.354-1.623,1.691-.01,1.98,0,3.918,0,5.853Z" transform="translate(-36.948 -42.145)" fill="#b4b4b4"/>
      <path id="Path_70" data-name="Path 70" d="M63.374,16.773c-.627-.3-1.623-.708-2.555-1.247a1.933,1.933,0,0,0-2.327,0A9.605,9.605,0,0,1,56.466,16.6c-1.688.669-3.382-.536-2.922-2.246.7-2.529.179-4.379-1.948-5.95a2.361,2.361,0,0,1-.506-2.142,2.392,2.392,0,0,1,1.733-1.347c2.405-.088,4.116-.873,4.782-3.4a2.022,2.022,0,0,1,2.1-1.526A1.987,1.987,0,0,1,61.7,1.483a4.236,4.236,0,0,0,4.661,3.376,1.87,1.87,0,0,1,1.948,1.35A2,2,0,0,1,67.594,8.6c-2.016,1.389-2.545,3.077-1.918,5.46C66.114,15.724,65.166,16.763,63.374,16.773Zm-9.612-9.6c.974,1.055,2.272,1.854,2.616,2.951s-.2,2.577-.38,4.087a12.855,12.855,0,0,0,1.75-.915,2.9,2.9,0,0,1,3.837-.045,9.326,9.326,0,0,0,1.548.776l.37-.068c-1.435-2.922-.383-5.051,2.389-6.817-1.432-.217-2.366-.409-3.311-.49a1.578,1.578,0,0,1-1.509-1.117,29.45,29.45,0,0,0-1.412-2.7c-.737,1.354-1.091,2.824-2.022,3.5S55.191,6.911,53.762,7.177Z" transform="translate(-34.588 0.015)" fill="#b4b4b4"/>
      <path id="Path_71" data-name="Path 71" d="M7.427,92.6c-1.211,0-2.425.032-3.636,0A3.61,3.61,0,0,1,.068,88.931Q0,85.177.065,81.419a3.55,3.55,0,0,1,3.665-3.7q3.817-.1,7.635,0a3.556,3.556,0,0,1,3.668,3.71q.107,3.754,0,7.512A3.581,3.581,0,0,1,11.31,92.6C10.014,92.638,8.719,92.6,7.427,92.6ZM7.58,80.1c-1.172,0-2.344.029-3.516,0s-1.646.464-1.646,1.571V88.7A1.374,1.374,0,0,0,4,90.239h7.142a1.3,1.3,0,0,0,1.487-1.48V81.487a1.234,1.234,0,0,0-1.422-1.4c-1.2.016-2.418.006-3.626.006Z" transform="translate(-0.034 -52.644)" fill="#b4b4b4"/>
      <path id="Path_72" data-name="Path 72" d="M116.425,103.177c-1.214,0-2.425.032-3.639,0a3.574,3.574,0,0,1-3.7-3.788c0-.808-.023-1.623,0-2.425a3.427,3.427,0,0,1,3.373-3.571c2.7-.1,5.418-.088,8.115,0a3.284,3.284,0,0,1,3.318,3.1,15.144,15.144,0,0,1,0,3.493,3.435,3.435,0,0,1-3.6,3.223c-.649.029-1.3,0-1.948,0H116.4Zm.023-2.37h1.694c3.623,0,3.6,0,3.477-3.6-.036-1.071-.493-1.545-1.548-1.535-1.691.019-3.386,0-5.08,0-3.928-.019-3.525-.214-3.525,3.775a1.2,1.2,0,0,0,1.354,1.337c1.211.029,2.422.019,3.629.019Z" transform="translate(-73.926 -63.219)" fill="#b4b4b4"/>
    </g>
  </g>
</svg>
