<svg xmlns="http://www.w3.org/2000/svg" width="37.946" height="40" viewBox="0 0 37.946 40">
  <g id="Layer_2" data-name="Layer 2" transform="translate(0.014 -0.002)">
    <g id="Layer_1" data-name="Layer 1" transform="translate(-0.014 0.002)">
      <path id="Path_67" data-name="Path 67" d="M37.918,10.523c-.287,8.834-2.939,16.759-9.144,23.275a25.221,25.221,0,0,1-9.03,6.087,2.966,2.966,0,0,1-2.048-.17,28.107,28.107,0,0,1-14.242-14.1A36.636,36.636,0,0,1-.01,9.073,2.455,2.455,0,0,1,1.842,6.415C7.335,4.394,12.769,2.222,18.236.138A2.093,2.093,0,0,1,19.611.1c5.656,2.159,11.28,4.389,16.955,6.518a1.807,1.807,0,0,1,1.365,1.959C37.908,9.227,37.918,9.873,37.918,10.523Zm-2.332.581c.072-2.237.075-2.237-1.8-2.972-4.6-1.819-9.209-3.645-13.843-5.395a3,3,0,0,0-1.959,0c-4.843,1.835-9.67,3.795-14.522,5.64A1.389,1.389,0,0,0,2.371,9.991,71.728,71.728,0,0,0,3.439,18.3c2.005,8.39,6.466,15.022,14.48,18.817a2.423,2.423,0,0,0,1.793.131,23.023,23.023,0,0,0,7.132-4.814C32.781,26.453,35.1,18.985,35.586,11.1Z" transform="translate(0.014 -0.002)" fill="#b4b4b4"/>
      <path id="Path_68" data-name="Path 68" d="M36.679,53.784l-6.779-6.8,1.737-1.547L36.472,50.5,46.765,39.92c.87.827,1.414,1.334,1.947,1.851Z" transform="translate(-20.325 -27.025)" fill="#b4b4b4"/>
    </g>
  </g>
</svg>
