<svg xmlns="http://www.w3.org/2000/svg" width="64" height="64" viewBox="0 0 64 64">
  <path id="javascript_icon" d="M0,0H64V64H0ZM58.757,48.736c-.467-2.92-2.368-5.373-8.008-7.661-1.963-.92-4.144-1.56-4.792-3.04a3.149,3.149,0,0,1-.123-1.88c.4-1.723,2.44-2.24,4.04-1.76a4.338,4.338,0,0,1,2.6,2.4c2.757-1.8,2.757-1.8,4.68-3a11.006,11.006,0,0,0-1.563-2.08c-1.68-1.88-3.917-2.84-7.557-2.757l-1.88.237a8.6,8.6,0,0,0-4.56,2.68A8.366,8.366,0,0,0,43.115,43.8c3.64,2.72,8.963,3.317,9.643,5.88.64,3.12-2.32,4.12-5.243,3.76-2.163-.48-3.36-1.563-4.68-3.563l-4.88,2.8a10.784,10.784,0,0,0,2.16,2.957c4.64,4.683,16.24,4.443,18.323-2.677a9.025,9.025,0,0,0,.2-4.4l.123.179ZM34.8,29.416H28.808c0,5.168-.024,10.3-.024,15.48,0,3.285.168,6.3-.368,7.229-.88,1.837-3.147,1.6-4.176,1.28a5.145,5.145,0,0,1-2.213-2.28,2.288,2.288,0,0,0-.339-.523l-4.867,3a9.432,9.432,0,0,0,3.531,4.045,11.736,11.736,0,0,0,8.552,1.08,7.49,7.49,0,0,0,4.829-3.763c1.36-2.48,1.072-5.52,1.059-8.923.032-5.477,0-10.957,0-16.477l.011-.149Z" fill="#b4b4b4"/>
</svg>
