<svg xmlns="http://www.w3.org/2000/svg" width="182.753" height="54.999" viewBox="0 0 182.753 54.999">
  <g id="logo" transform="translate(-300 -83.001)">
    <g id="Group_36" data-name="Group 36" transform="translate(-1243.843 -444.199)">
      <g id="_1111_1" data-name="1111_1" transform="translate(1543.843 527.2)">
        <path id="Path_8" data-name="Path 8" d="M1556.527,656.409c.37,1.12,2.095,5.485,6.387,5.561a1.964,1.964,0,0,0,1.594-.3c.9-.622,1.343-1.925,1.343-3.983V639.511a1.695,1.695,0,1,0-1.586,0V657.69c0,2.03-.492,2.556-.642,2.666a.4.4,0,0,1-.317.079l-.136-.051h-.147c-3.7,0-5.038-4.605-5.049-4.654l-.071-.249-.2-.158c-3.494-2.745-1.055-7.526-.95-7.729l.136-.26-.065-.283c-1.264-5.564,2.5-6.864,2.66-6.915l.661-.206-.119-.684c-.427-2.482-.1-4.422.987-5.77a6.142,6.142,0,0,1,4.077-2.024l.761-.031V619.2l-.7-.085c-.252-.031-6.183-.712-9.725,2.607a8.479,8.479,0,0,0-2.519,6.522,9.737,9.737,0,0,0-5.742,3.492c-1.64,2.18-2.16,5.083-1.549,8.634-.845,1.363-3.949,7.155.82,12.307-.4,1.609-1.072,6.709,5.089,9.887.22,1.323,1.382,4.806,7.478,6.344a7.8,7.8,0,0,0,2.559.469,4.352,4.352,0,0,0,2.474-.684,4.108,4.108,0,0,0,1.665-2.754,1.7,1.7,0,1,0-1.586-.156,2.515,2.515,0,0,1-.967,1.595c-1.117.76-2.988.286-3.613.037l-.1-.031c-6.225-1.558-6.372-5.191-6.375-5.335v-.5l-.449-.215c-6.494-3.116-4.625-8.377-4.543-8.595l.184-.481-.362-.362c-4.964-4.964-.964-10.653-.792-10.89l.2-.277-.062-.336c-.611-3.231-.209-5.818,1.19-7.69a8.419,8.419,0,0,1,5.372-3l.76-.071-.042-.763a7.25,7.25,0,0,1,1.993-5.985c2.355-2.208,6.2-2.307,7.758-2.242v9.315a7.426,7.426,0,0,0-4.475,2.508,8.184,8.184,0,0,0-1.416,6.44c-1.343.71-4.249,2.9-3.158,8.216C1554.175,649.3,1553.273,653.658,1556.527,656.409Z" transform="translate(-1543.843 -616.445)" fill="#f7c77a"/>
        <path id="Path_9" data-name="Path 9" d="M2666.735,640.392c.611-3.551.093-6.454-1.549-8.634a9.738,9.738,0,0,0-5.742-3.491,8.468,8.468,0,0,0-2.519-6.522c-3.542-3.316-9.474-2.638-9.725-2.607l-.7.085v12.219l.76.031a6.07,6.07,0,0,1,4.068,2.013c1.091,1.349,1.425,3.294,1,5.781l-.119.684.661.206c.161.051,3.938,1.3,2.66,6.915l-.065.286.136.26c.025.051,2.558,4.97-.95,7.727l-.2.161-.071.249c-.014.045-1.354,4.653-5.049,4.653l-.257.042a.4.4,0,0,1-.342-.071c-.15-.113-.642-.639-.642-2.666V639.536a1.7,1.7,0,1,0-1.586,0v18.179c0,2.058.438,3.362,1.343,3.983a1.977,1.977,0,0,0,1.594.3c4.292-.076,6.016-4.441,6.386-5.561,3.254-2.751,2.352-7.11,1.309-9.29,1.091-5.315-1.815-7.506-3.158-8.216a8.2,8.2,0,0,0-1.416-6.44,7.442,7.442,0,0,0-4.476-2.508v-9.318c1.563-.065,5.406.034,7.758,2.242a7.253,7.253,0,0,1,1.993,5.985l-.042.763.76.071a8.365,8.365,0,0,1,5.363,2.988c1.408,1.872,1.812,4.464,1.2,7.7l-.062.336.2.277c.172.24,4.2,5.906-.792,10.89l-.359.362.178.478c.082.223,1.951,5.482-4.543,8.6l-.438.218-.011.486c0,.153-.15,3.788-6.375,5.343l-.1.031c-.023.008-2.276.868-3.61-.034a2.516,2.516,0,0,1-.97-1.6,1.7,1.7,0,1,0-1.586.156,4.115,4.115,0,0,0,1.665,2.754,4.352,4.352,0,0,0,2.474.684,7.72,7.72,0,0,0,2.558-.469c6.1-1.541,7.257-5.021,7.478-6.344,6.157-3.178,5.485-8.278,5.089-9.886C2670.684,647.548,2667.58,641.755,2666.735,640.392Z" transform="translate(-2614.451 -616.463)" fill="#f7c77a"/>
        <path id="Path_10" data-name="Path 10" d="M2420.46,564.414a2.366,2.366,0,0,0-1.586-2.231V541.647a1.682,1.682,0,0,0,0-2.98v-8.281a1.7,1.7,0,1,0-1.589,0v8.278a1.682,1.682,0,0,0,0,2.98V562.18a2.362,2.362,0,0,0,0,4.461v12.372a1.7,1.7,0,1,0,1.589,0V566.641A2.36,2.36,0,0,0,2420.46,564.414Z" transform="translate(-2391.051 -527.2)" fill="#f7c77a"/>
      </g>
    </g>
    <text id="Jexlyn" transform="translate(365.753 121)" fill="#f7c77a" font-size="30" font-family="Bellefair-Regular, Bellefair" letter-spacing="0.1em"><tspan x="0" y="0">JEXLYN</tspan></text>
  </g>
</svg>
