<svg xmlns="http://www.w3.org/2000/svg" width="28.696" height="64" viewBox="0 0 28.696 64">
  <path id="mongodb_icon" d="M38.092,25.381C34.724,10.555,26.78,5.683,25.927,3.819A23.961,23.961,0,0,1,23.972,0c-.005.051-.011.083-.013.131V.165h0c-.005.04-.008.067-.011.1v.04H23.94c0,.027-.005.048-.005.069V.448h-.008a.506.506,0,0,1-.008.067V.571h-.005a.19.19,0,0,1-.005.056V.68H23.9c0,.027,0,.059-.005.085V.771c-.008.045-.016.091-.024.133V.925h-.005a.141.141,0,0,0-.008.032V1h-.008v.059h-.013v.048h-.013v.056h-.011v.051H23.8v.045h-.016V1.3h-.011v.048h-.011v.037h-.013v.035h-.008v.04h-.011a.016.016,0,0,0,0,.011V1.5h-.008a.034.034,0,0,0,0,.016v.016h-.005a.117.117,0,0,0-.005.027c-.008.019-.019.037-.027.056v.005a.081.081,0,0,0-.013.019v.021H23.66v.021h-.013V1.7h-.008v.027h-.016v.037h-.011v.011H23.6v.021h-.011v.029H23.58v.021h-.016v.029h-.011V1.9H23.54v.021h-.008v.027h-.013v.021h-.011v.016H23.5V2h-.016v.024h-.011v.016h-.013v.021h-.011v.029h-.013V2.1h-.008v.021H23.41v.011H23.4v.027h-.011v.011h-.011v.021h-.013v.016h-.008l-.005.011v.011h-.005c0,.005-.005.005-.005.011v0h0a.043.043,0,0,1-.011.019v.008h0a.5.5,0,0,0-.032.048v0a.12.12,0,0,0-.024.027v.005h0s-.008.005-.008.008v.008h-.005l-.008.008v0h0s-.005.005-.008.011V2.4h-.008l-.005.005v.005h-.005c0,.005-.005.005-.005.008v.008H23.2s0,.005-.005.008v.016h-.008v.011h-.011V2.48h-.011V2.5h-.013V2.48h-.013v.011h-.011v.016h-.013v.021H23.1v.011H23.09v.016h-.011v.011h-.011v.021h-.016V2.6h-.011v.016h-.013v.011h-.011v.013H23v.027H23v.011h-.016v.013h-.011v.005h-.011V2.7h-.013v.027h-.011v.011h-.013v.011h-.011v.016H22.9v.011h-.013v.011h-.011V2.8h-.011v.027h-.011V2.84h-.016v.011h-.011v.011h-.013v.016H22.8v.011h-.013v.019H22.78v.011h-.016v.016h-.005v.011h-.011v.011h-.013v.011h-.011v.016h-.013v.011H22.7A.008.008,0,0,0,22.7,3V3h-.005l-.011.011a.05.05,0,0,1-.011.008v.016h-.011v.013h-.011v.011h-.011v.011h-.008l-.008.008v.008H22.62l-.005.005V3.1H22.61a.267.267,0,0,1-.037.043l-.032.027a.976.976,0,0,0-.1.085.562.562,0,0,0-.059.045v0h0l-.131.1v0c-.064.053-.125.1-.2.165v0h-.005c-.152.125-.312.267-.5.424V4h0c-.451.395-.987.9-1.587,1.515l-.04.04-.011.011c-3.627,3.752-9.341,11.571-9.944,24.205a27.643,27.643,0,0,0,.016,3.051v.024a29.054,29.054,0,0,0,3.808,12.683v0a33.4,33.4,0,0,0,2.469,3.747v0a34.124,34.124,0,0,0,6.7,6.736c1.176,2.728,1.067,7.411,1.067,7.411L25.743,64a31.983,31.983,0,0,1,.141-6.725,4.155,4.155,0,0,1,.931-1.765,22.349,22.349,0,0,0,2.125-1.72c.048-.051.075-.1.117-.144,4.056-3.781,11.632-13.093,9.035-28.264Z" transform="translate(-9.927)" fill="#b4b4b4"/>
</svg>
