<svg xmlns="http://www.w3.org/2000/svg" width="104.494" height="64" viewBox="0 0 104.494 64">
  <path id="node_icon" d="M51.643,68.22a2.157,2.157,0,0,1-1-.261L47.512,66.1c-.473-.261-.245-.359-.082-.408a5.717,5.717,0,0,0,1.42-.653.281.281,0,0,1,.229.016L51.5,66.489a.312.312,0,0,0,.294,0l9.437-5.453a.309.309,0,0,0,.147-.261V49.884a.277.277,0,0,0-.147-.261L51.79,44.186a.312.312,0,0,0-.294,0l-9.437,5.437a.294.294,0,0,0-.147.261v10.89a.3.3,0,0,0,.147.245l2.58,1.486c1.4.7,2.269-.131,2.269-.947V50.8a.275.275,0,0,1,.278-.278h1.192a.275.275,0,0,1,.278.278v10.76A2.6,2.6,0,0,1,45.863,64.5a4.047,4.047,0,0,1-2.172-.588l-2.482-1.42a2.017,2.017,0,0,1-1-1.714V49.884a1.962,1.962,0,0,1,1-1.714l9.437-5.453a2.026,2.026,0,0,1,1.976,0l9.437,5.453a2.017,2.017,0,0,1,1,1.714v10.89a1.962,1.962,0,0,1-1,1.714l-9.437,5.453a1.807,1.807,0,0,1-.98.278Zm7.625-10.743c0-2.041-1.371-2.58-4.278-2.972-2.939-.392-3.233-.588-3.233-1.274,0-.571.245-1.322,2.416-1.322,1.943,0,2.661.425,2.955,1.731a.262.262,0,0,0,.261.212h1.225a.27.27,0,0,0,.2-.082.257.257,0,0,0,.065-.212c-.2-2.253-1.682-3.3-4.7-3.3-2.694,0-4.294,1.143-4.294,3.037,0,2.074,1.6,2.629,4.18,2.89,3.086.31,3.331.751,3.331,1.355,0,1.061-.849,1.5-2.841,1.5-2.5,0-3.053-.62-3.233-1.861a.269.269,0,0,0-.278-.229H49.814a.275.275,0,0,0-.278.278c0,1.584.865,3.478,5,3.478,3.021,0,4.735-1.176,4.735-3.233Zm8.9-8.18a1.812,1.812,0,1,1-1.812-1.812A1.8,1.8,0,0,1,68.166,49.3Zm-.294,0a1.527,1.527,0,1,0-1.535,1.535A1.554,1.554,0,0,0,67.872,49.3Zm-.735,1.012h-.424c-.016-.1-.082-.62-.082-.637-.033-.114-.065-.18-.212-.18H66.06v.816h-.392V48.268h.7c.245,0,.718,0,.718.539a.479.479,0,0,1-.392.506c.278.016.294.2.343.457a2.275,2.275,0,0,0,.1.539Zm-.457-1.437c0-.278-.2-.278-.294-.278H66.06v.571h.31a.275.275,0,0,0,.31-.294ZM22.417,25.606a1.187,1.187,0,0,0-.6-1.045L11.8,18.8a1.291,1.291,0,0,0-.555-.163h-.1a1.15,1.15,0,0,0-.555.163L.6,24.561A1.207,1.207,0,0,0,0,25.606L.016,41.117a.624.624,0,0,0,.294.522.575.575,0,0,0,.6,0l5.943-3.412a1.227,1.227,0,0,0,.6-1.045V29.933a1.207,1.207,0,0,1,.6-1.045L10.6,27.435a1.16,1.16,0,0,1,.6-.163,1.121,1.121,0,0,1,.6.163l2.531,1.453a1.207,1.207,0,0,1,.6,1.045v7.249a1.207,1.207,0,0,0,.6,1.045l5.943,3.412a.575.575,0,0,0,.6,0,.6.6,0,0,0,.294-.522ZM77.146,8.675v28.8a1.207,1.207,0,0,1-.6,1.045L66.533,44.3a1.226,1.226,0,0,1-1.208,0l-10.009-5.78a1.207,1.207,0,0,1-.6-1.045V25.916a1.207,1.207,0,0,1,.6-1.045l10.009-5.78a1.226,1.226,0,0,1,1.208,0l2.5,1.437a.428.428,0,0,0,.637-.359V4.822a.6.6,0,0,1,.9-.522L76.525,7.63a1.183,1.183,0,0,1,.62,1.045ZM69.635,29.72a.309.309,0,0,0-.147-.261L66.06,27.467a.346.346,0,0,0-.31,0l-3.429,1.992a.277.277,0,0,0-.147.261v3.967a.309.309,0,0,0,.147.261l3.429,1.976a.312.312,0,0,0,.294,0l3.429-1.976a.277.277,0,0,0,.147-.261V29.72Zm34.254-.114a1.207,1.207,0,0,0,.6-1.045V25.769a1.207,1.207,0,0,0-.6-1.045l-9.943-5.78a1.226,1.226,0,0,0-1.208,0L82.73,24.724a1.207,1.207,0,0,0-.6,1.045v11.56a1.187,1.187,0,0,0,.6,1.045l9.943,5.666a1.2,1.2,0,0,0,1.192,0l6.008-3.347a.6.6,0,0,0,0-1.045L89.8,33.867a.6.6,0,0,1-.31-.522V29.72a.6.6,0,0,1,.31-.522l3.135-1.812a.575.575,0,0,1,.6,0L96.673,29.2a.64.64,0,0,1,.31.522v2.841a.613.613,0,0,0,.914.522l5.992-3.478Zm-12.621.571a.249.249,0,0,0-.114.2v2.22a.227.227,0,0,0,.114.2L93.2,33.9a.2.2,0,0,0,.229,0l1.927-1.11a.249.249,0,0,0,.114-.2v-2.22a.227.227,0,0,0-.114-.2l-1.927-1.11a.2.2,0,0,0-.229,0Zm-41.5,7.1V25.786a1.238,1.238,0,0,0-.637-1.045l-9.976-5.747a1.225,1.225,0,0,0-1.208,0l-9.976,5.747a1.218,1.218,0,0,0-.637,1.045V37.28a1.259,1.259,0,0,0,.653,1.045l9.992,5.747a1.186,1.186,0,0,0,1.208,0l9.96-5.747a1.213,1.213,0,0,0,.588-.767A1.438,1.438,0,0,0,49.765,37.28ZM37.634,16.887l-.131.082h.18ZM50.075,38.145l-.065-.114v.147Z" transform="translate(0 -4.22)" fill="#b4b4b4"/>
</svg>
